<?xml version="1.0" standalone="no"?>
<!DOCTYPE svg PUBLIC "-//W3C//DTD SVG 20010904//EN"
 "http://www.w3.org/TR/2001/REC-SVG-20010904/DTD/svg10.dtd">
<svg version="1.0" xmlns="http://www.w3.org/2000/svg"
 width="1995.000000pt" height="1995.000000pt" viewBox="0 0 1995.000000 1995.000000"
 preserveAspectRatio="xMidYMid meet">
<metadata>
Created by potrace 1.14, written by Peter Selinger 2001-2017
</metadata>
<g transform="translate(0.000000,1995.000000) scale(0.100000,-0.100000)"
fill="#3164dc" stroke="none">
<path d="M9569 19946 c-2 -2 -71 -7 -154 -10 -82 -4 -166 -9 -185 -11 -19 -2
-71 -6 -115 -10 -44 -3 -96 -8 -115 -10 -19 -2 -60 -7 -90 -10 -95 -9 -384
-46 -400 -50 -8 -2 -37 -6 -64 -10 -27 -3 -147 -24 -266 -45 -1487 -269 -2895
-878 -4120 -1780 -85 -63 -157 -117 -160 -120 -3 -3 -25 -21 -50 -40 -208
-158 -532 -437 -749 -645 -326 -313 -581 -587 -880 -950 -210 -255 -523 -696
-728 -1025 -186 -298 -426 -741 -561 -1035 -103 -224 -115 -253 -173 -392
-229 -549 -412 -1137 -538 -1725 -54 -249 -104 -537 -137 -785 -2 -18 -6 -48
-9 -65 -7 -50 -34 -314 -40 -393 -3 -38 -8 -86 -10 -105 -27 -220 -27 -1258 0
-1502 2 -18 6 -69 10 -113 15 -205 57 -535 101 -800 178 -1070 556 -2167 1074
-3110 280 -510 629 -1034 985 -1475 107 -134 268 -326 289 -345 6 -6 49 -53
96 -105 188 -211 496 -519 710 -710 52 -47 97 -87 100 -90 3 -3 34 -30 70 -60
35 -30 70 -60 78 -67 7 -7 34 -29 60 -50 26 -21 56 -46 67 -56 41 -37 314
-248 450 -347 278 -203 657 -445 1025 -655 243 -139 757 -385 1060 -508 715
-291 1575 -529 2245 -622 23 -3 51 -7 64 -10 32 -6 413 -53 486 -60 378 -34
512 -40 970 -40 365 0 618 7 755 20 25 3 74 7 110 9 573 43 1357 188 1945 362
1204 356 2293 910 3282 1671 142 109 193 150 368 296 320 268 689 629 1014
992 380 424 779 967 1089 1482 468 776 854 1680 1072 2508 18 66 38 140 45
165 19 61 110 473 130 585 9 50 25 140 35 200 18 97 58 377 74 505 5 45 30
299 40 415 29 329 29 1171 1 1505 -15 172 -17 199 -31 340 -3 30 -7 66 -9 80
-3 14 -7 52 -10 85 -4 33 -8 67 -10 75 -2 8 -7 40 -10 70 -8 71 -82 506 -100
590 -8 36 -26 119 -40 185 -120 552 -330 1206 -565 1755 -400 934 -950 1814
-1623 2594 -1161 1345 -2666 2361 -4337 2927 -261 89 -642 201 -830 244 -387
90 -677 146 -958 185 -81 11 -161 23 -177 25 -17 2 -100 11 -185 20 -85 9
-174 18 -197 20 -23 2 -88 7 -145 11 -57 3 -116 8 -133 11 -37 5 -990 14 -996
9z"/>
</g>
</svg>
