<?xml version="1.0" standalone="no"?>
<!DOCTYPE svg PUBLIC "-//W3C//DTD SVG 20010904//EN"
 "http://www.w3.org/TR/2001/REC-SVG-20010904/DTD/svg10.dtd">
<svg version="1.0" xmlns="http://www.w3.org/2000/svg"
 width="795.000000pt" height="795.000000pt" viewBox="0 0 795.000000 795.000000"
 preserveAspectRatio="xMidYMid meet">
<metadata>
Created by potrace 1.14, written by Peter Selinger 2001-2017
</metadata>
<g transform="translate(0.000000,795.000000) scale(0.100000,-0.100000)"
fill="#000000" stroke="none">
<path d="M3718 7945 c-2 -1 -43 -6 -91 -9 -106 -8 -144 -13 -262 -32 -49 -8
-103 -17 -120 -20 -147 -23 -409 -93 -600 -161 -121 -43 -363 -145 -424 -179
-24 -13 -48 -24 -54 -24 -6 0 -18 -6 -26 -14 -9 -7 -47 -30 -86 -51 -148 -79
-282 -163 -425 -269 -94 -69 -117 -87 -215 -169 -116 -98 -343 -318 -415 -403
-14 -16 -41 -47 -60 -69 -19 -23 -48 -58 -65 -79 -16 -21 -35 -44 -40 -50 -21
-22 -162 -223 -214 -305 -268 -422 -454 -887 -551 -1379 -49 -254 -64 -412
-64 -722 -1 -353 5 -440 50 -708 101 -606 362 -1213 733 -1707 42 -55 80 -105
86 -111 5 -6 30 -36 55 -65 84 -100 124 -144 251 -269 146 -145 195 -189 356
-314 367 -286 774 -502 1216 -645 428 -139 791 -192 1277 -186 157 2 299 6
315 9 17 3 73 10 125 16 403 46 846 176 1225 360 127 61 315 164 364 199 16
12 32 21 35 21 3 0 34 20 69 45 36 25 68 45 71 45 4 0 19 11 34 25 15 14 32
25 39 25 7 0 13 4 13 8 0 5 21 24 48 43 59 43 72 53 228 184 60 50 304 292
359 356 17 19 50 59 75 89 25 30 47 57 50 60 6 6 54 69 92 119 41 56 198 289
198 295 0 3 13 24 29 48 16 24 58 99 94 168 225 429 368 886 431 1378 28 222
29 742 1 947 -77 570 -229 1032 -490 1490 -104 184 -314 487 -398 577 -7 7
-34 40 -62 73 -96 115 -361 372 -471 457 -16 12 -35 28 -42 35 -8 8 -30 26
-50 41 -21 15 -43 33 -50 40 -7 6 -17 12 -20 12 -4 0 -19 10 -33 23 -14 12
-32 27 -41 32 -9 6 -54 35 -100 66 -472 315 -1034 531 -1608 618 -66 10 -130
17 -280 31 -77 7 -555 11 -562 5z"/>
</g>
</svg>
